<mxfile host="Electron" agent="Mozilla/5.0 (Macintosh; Intel Mac OS X 10_15_7) AppleWebKit/537.36 (KHTML, like Gecko) draw.io/24.7.17 Chrome/128.0.6613.36 Electron/32.0.1 Safari/537.36" version="24.7.17">
  <diagram id="C5RBs43oDa-KdzZeNtuy" name="Page-1">
    <mxGraphModel dx="2109" dy="1128" grid="1" gridSize="10" guides="1" tooltips="1" connect="1" arrows="1" fold="1" page="1" pageScale="1" pageWidth="827" pageHeight="1169" math="0" shadow="0">
      <root>
        <mxCell id="WIyWlLk6GJQsqaUBKTNV-0" />
        <mxCell id="WIyWlLk6GJQsqaUBKTNV-1" parent="WIyWlLk6GJQsqaUBKTNV-0" />
        <mxCell id="j0nrbRdaFHqnjfs8Q7LT-4" value="" style="edgeStyle=orthogonalEdgeStyle;rounded=0;orthogonalLoop=1;jettySize=auto;html=1;" parent="WIyWlLk6GJQsqaUBKTNV-1" source="jT1MtgrbQrkUiN0wVVsD-0" target="j0nrbRdaFHqnjfs8Q7LT-0" edge="1">
          <mxGeometry relative="1" as="geometry" />
        </mxCell>
        <mxCell id="jT1MtgrbQrkUiN0wVVsD-0" value="开始" style="ellipse;whiteSpace=wrap;html=1;" parent="WIyWlLk6GJQsqaUBKTNV-1" vertex="1">
          <mxGeometry x="-375" y="105" width="90" height="40" as="geometry" />
        </mxCell>
        <mxCell id="j0nrbRdaFHqnjfs8Q7LT-7" style="edgeStyle=orthogonalEdgeStyle;rounded=0;orthogonalLoop=1;jettySize=auto;html=1;exitX=0.5;exitY=1;exitDx=0;exitDy=0;entryX=0.5;entryY=0;entryDx=0;entryDy=0;" parent="WIyWlLk6GJQsqaUBKTNV-1" source="jT1MtgrbQrkUiN0wVVsD-1" target="jT1MtgrbQrkUiN0wVVsD-2" edge="1">
          <mxGeometry relative="1" as="geometry" />
        </mxCell>
        <mxCell id="jT1MtgrbQrkUiN0wVVsD-1" value="打开源文件" style="rounded=0;whiteSpace=wrap;html=1;" parent="WIyWlLk6GJQsqaUBKTNV-1" vertex="1">
          <mxGeometry x="-240" y="180" width="110" height="50" as="geometry" />
        </mxCell>
        <mxCell id="jT1MtgrbQrkUiN0wVVsD-12" value="" style="edgeStyle=orthogonalEdgeStyle;rounded=0;orthogonalLoop=1;jettySize=auto;html=1;" parent="WIyWlLk6GJQsqaUBKTNV-1" source="jT1MtgrbQrkUiN0wVVsD-2" target="jT1MtgrbQrkUiN0wVVsD-4" edge="1">
          <mxGeometry relative="1" as="geometry" />
        </mxCell>
        <mxCell id="jT1MtgrbQrkUiN0wVVsD-20" value="" style="edgeStyle=orthogonalEdgeStyle;rounded=0;orthogonalLoop=1;jettySize=auto;html=1;" parent="WIyWlLk6GJQsqaUBKTNV-1" source="jT1MtgrbQrkUiN0wVVsD-2" target="jT1MtgrbQrkUiN0wVVsD-3" edge="1">
          <mxGeometry relative="1" as="geometry" />
        </mxCell>
        <mxCell id="jT1MtgrbQrkUiN0wVVsD-2" value="指针在文件尾?" style="rhombus;whiteSpace=wrap;html=1;" parent="WIyWlLk6GJQsqaUBKTNV-1" vertex="1">
          <mxGeometry x="-252.5" y="260" width="135" height="70" as="geometry" />
        </mxCell>
        <mxCell id="jT1MtgrbQrkUiN0wVVsD-21" value="" style="edgeStyle=orthogonalEdgeStyle;rounded=0;orthogonalLoop=1;jettySize=auto;html=1;" parent="WIyWlLk6GJQsqaUBKTNV-1" source="jT1MtgrbQrkUiN0wVVsD-3" target="jT1MtgrbQrkUiN0wVVsD-10" edge="1">
          <mxGeometry relative="1" as="geometry" />
        </mxCell>
        <mxCell id="jT1MtgrbQrkUiN0wVVsD-3" value="关闭源文件" style="rounded=0;whiteSpace=wrap;html=1;" parent="WIyWlLk6GJQsqaUBKTNV-1" vertex="1">
          <mxGeometry x="-50" y="270" width="110" height="50" as="geometry" />
        </mxCell>
        <mxCell id="jT1MtgrbQrkUiN0wVVsD-13" value="" style="edgeStyle=orthogonalEdgeStyle;rounded=0;orthogonalLoop=1;jettySize=auto;html=1;" parent="WIyWlLk6GJQsqaUBKTNV-1" source="jT1MtgrbQrkUiN0wVVsD-4" target="jT1MtgrbQrkUiN0wVVsD-5" edge="1">
          <mxGeometry relative="1" as="geometry" />
        </mxCell>
        <mxCell id="jT1MtgrbQrkUiN0wVVsD-4" value="读取文件块&lt;div&gt;(指针后移)&lt;/div&gt;" style="rounded=0;whiteSpace=wrap;html=1;" parent="WIyWlLk6GJQsqaUBKTNV-1" vertex="1">
          <mxGeometry x="-240" y="366" width="110" height="50" as="geometry" />
        </mxCell>
        <mxCell id="j0nrbRdaFHqnjfs8Q7LT-9" value="" style="edgeStyle=orthogonalEdgeStyle;rounded=0;orthogonalLoop=1;jettySize=auto;html=1;" parent="WIyWlLk6GJQsqaUBKTNV-1" source="jT1MtgrbQrkUiN0wVVsD-5" target="jT1MtgrbQrkUiN0wVVsD-6" edge="1">
          <mxGeometry relative="1" as="geometry" />
        </mxCell>
        <mxCell id="jT1MtgrbQrkUiN0wVVsD-5" value="计算当前&lt;div&gt;文件块哈希值&lt;/div&gt;" style="rounded=0;whiteSpace=wrap;html=1;" parent="WIyWlLk6GJQsqaUBKTNV-1" vertex="1">
          <mxGeometry x="-240" y="446" width="110" height="50" as="geometry" />
        </mxCell>
        <mxCell id="jT1MtgrbQrkUiN0wVVsD-16" value="" style="edgeStyle=orthogonalEdgeStyle;rounded=0;orthogonalLoop=1;jettySize=auto;html=1;" parent="WIyWlLk6GJQsqaUBKTNV-1" source="jT1MtgrbQrkUiN0wVVsD-6" target="jT1MtgrbQrkUiN0wVVsD-7" edge="1">
          <mxGeometry relative="1" as="geometry" />
        </mxCell>
        <mxCell id="j0nrbRdaFHqnjfs8Q7LT-2" value="" style="edgeStyle=orthogonalEdgeStyle;rounded=0;orthogonalLoop=1;jettySize=auto;html=1;" parent="WIyWlLk6GJQsqaUBKTNV-1" source="jT1MtgrbQrkUiN0wVVsD-6" target="jT1MtgrbQrkUiN0wVVsD-8" edge="1">
          <mxGeometry relative="1" as="geometry" />
        </mxCell>
        <mxCell id="jT1MtgrbQrkUiN0wVVsD-6" value="哈希值在数据库?" style="rhombus;whiteSpace=wrap;html=1;" parent="WIyWlLk6GJQsqaUBKTNV-1" vertex="1">
          <mxGeometry x="-252.5" y="526" width="135" height="70" as="geometry" />
        </mxCell>
        <mxCell id="jT1MtgrbQrkUiN0wVVsD-17" style="edgeStyle=orthogonalEdgeStyle;rounded=0;orthogonalLoop=1;jettySize=auto;html=1;exitX=0.5;exitY=1;exitDx=0;exitDy=0;entryX=1;entryY=0.5;entryDx=0;entryDy=0;" parent="WIyWlLk6GJQsqaUBKTNV-1" source="jT1MtgrbQrkUiN0wVVsD-7" target="jT1MtgrbQrkUiN0wVVsD-9" edge="1">
          <mxGeometry relative="1" as="geometry" />
        </mxCell>
        <mxCell id="jT1MtgrbQrkUiN0wVVsD-7" value="将当前块信息&lt;div&gt;写入数据库&lt;/div&gt;" style="rounded=0;whiteSpace=wrap;html=1;" parent="WIyWlLk6GJQsqaUBKTNV-1" vertex="1">
          <mxGeometry x="-60" y="536" width="110" height="50" as="geometry" />
        </mxCell>
        <mxCell id="j0nrbRdaFHqnjfs8Q7LT-3" value="" style="edgeStyle=orthogonalEdgeStyle;rounded=0;orthogonalLoop=1;jettySize=auto;html=1;" parent="WIyWlLk6GJQsqaUBKTNV-1" source="jT1MtgrbQrkUiN0wVVsD-8" target="jT1MtgrbQrkUiN0wVVsD-9" edge="1">
          <mxGeometry relative="1" as="geometry" />
        </mxCell>
        <mxCell id="jT1MtgrbQrkUiN0wVVsD-8" value="更新当前哈希记录的计数器" style="rounded=0;whiteSpace=wrap;html=1;" parent="WIyWlLk6GJQsqaUBKTNV-1" vertex="1">
          <mxGeometry x="-400" y="536" width="110" height="50" as="geometry" />
        </mxCell>
        <mxCell id="j0nrbRdaFHqnjfs8Q7LT-8" style="edgeStyle=orthogonalEdgeStyle;rounded=0;orthogonalLoop=1;jettySize=auto;html=1;exitX=0;exitY=0.5;exitDx=0;exitDy=0;entryX=0;entryY=0.5;entryDx=0;entryDy=0;" parent="WIyWlLk6GJQsqaUBKTNV-1" source="jT1MtgrbQrkUiN0wVVsD-9" target="jT1MtgrbQrkUiN0wVVsD-2" edge="1">
          <mxGeometry relative="1" as="geometry">
            <Array as="points">
              <mxPoint x="-440" y="649" />
              <mxPoint x="-440" y="295" />
            </Array>
          </mxGeometry>
        </mxCell>
        <mxCell id="jT1MtgrbQrkUiN0wVVsD-9" value="哈希值和文件块&lt;div&gt;写入文件&lt;/div&gt;" style="rounded=0;whiteSpace=wrap;html=1;" parent="WIyWlLk6GJQsqaUBKTNV-1" vertex="1">
          <mxGeometry x="-400" y="624" width="110" height="50" as="geometry" />
        </mxCell>
        <mxCell id="jT1MtgrbQrkUiN0wVVsD-10" value="结束" style="ellipse;whiteSpace=wrap;html=1;" parent="WIyWlLk6GJQsqaUBKTNV-1" vertex="1">
          <mxGeometry x="-40" y="360" width="90" height="40" as="geometry" />
        </mxCell>
        <mxCell id="j0nrbRdaFHqnjfs8Q7LT-13" style="edgeStyle=orthogonalEdgeStyle;rounded=0;orthogonalLoop=1;jettySize=auto;html=1;exitX=1;exitY=0.5;exitDx=0;exitDy=0;entryX=0;entryY=0.5;entryDx=0;entryDy=0;" parent="WIyWlLk6GJQsqaUBKTNV-1" source="jT1MtgrbQrkUiN0wVVsD-23" target="j0nrbRdaFHqnjfs8Q7LT-1" edge="1">
          <mxGeometry relative="1" as="geometry" />
        </mxCell>
        <mxCell id="jT1MtgrbQrkUiN0wVVsD-23" value="START" style="ellipse;whiteSpace=wrap;html=1;" parent="WIyWlLk6GJQsqaUBKTNV-1" vertex="1">
          <mxGeometry x="210" y="110" width="90" height="40" as="geometry" />
        </mxCell>
        <mxCell id="j0nrbRdaFHqnjfs8Q7LT-11" style="edgeStyle=orthogonalEdgeStyle;rounded=0;orthogonalLoop=1;jettySize=auto;html=1;exitX=0.5;exitY=1;exitDx=0;exitDy=0;entryX=0.5;entryY=0;entryDx=0;entryDy=0;" parent="WIyWlLk6GJQsqaUBKTNV-1" source="jT1MtgrbQrkUiN0wVVsD-24" target="jT1MtgrbQrkUiN0wVVsD-27" edge="1">
          <mxGeometry relative="1" as="geometry" />
        </mxCell>
        <mxCell id="jT1MtgrbQrkUiN0wVVsD-24" value="Open source file" style="rounded=0;whiteSpace=wrap;html=1;" parent="WIyWlLk6GJQsqaUBKTNV-1" vertex="1">
          <mxGeometry x="340" y="185" width="110" height="50" as="geometry" />
        </mxCell>
        <mxCell id="jT1MtgrbQrkUiN0wVVsD-25" value="" style="edgeStyle=orthogonalEdgeStyle;rounded=0;orthogonalLoop=1;jettySize=auto;html=1;" parent="WIyWlLk6GJQsqaUBKTNV-1" source="jT1MtgrbQrkUiN0wVVsD-27" target="jT1MtgrbQrkUiN0wVVsD-31" edge="1">
          <mxGeometry relative="1" as="geometry" />
        </mxCell>
        <mxCell id="jT1MtgrbQrkUiN0wVVsD-26" value="" style="edgeStyle=orthogonalEdgeStyle;rounded=0;orthogonalLoop=1;jettySize=auto;html=1;" parent="WIyWlLk6GJQsqaUBKTNV-1" source="jT1MtgrbQrkUiN0wVVsD-27" target="jT1MtgrbQrkUiN0wVVsD-29" edge="1">
          <mxGeometry relative="1" as="geometry" />
        </mxCell>
        <mxCell id="jT1MtgrbQrkUiN0wVVsD-27" value="Pointer at the&lt;div&gt;end&amp;nbsp;&lt;span style=&quot;background-color: initial;&quot;&gt;of the file?&lt;/span&gt;&lt;/div&gt;" style="rhombus;whiteSpace=wrap;html=1;" parent="WIyWlLk6GJQsqaUBKTNV-1" vertex="1">
          <mxGeometry x="327.5" y="260" width="135" height="70" as="geometry" />
        </mxCell>
        <mxCell id="jT1MtgrbQrkUiN0wVVsD-28" value="" style="edgeStyle=orthogonalEdgeStyle;rounded=0;orthogonalLoop=1;jettySize=auto;html=1;" parent="WIyWlLk6GJQsqaUBKTNV-1" source="jT1MtgrbQrkUiN0wVVsD-29" target="jT1MtgrbQrkUiN0wVVsD-42" edge="1">
          <mxGeometry relative="1" as="geometry" />
        </mxCell>
        <mxCell id="jT1MtgrbQrkUiN0wVVsD-29" value="Close source file" style="rounded=0;whiteSpace=wrap;html=1;" parent="WIyWlLk6GJQsqaUBKTNV-1" vertex="1">
          <mxGeometry x="530" y="270" width="110" height="50" as="geometry" />
        </mxCell>
        <mxCell id="jT1MtgrbQrkUiN0wVVsD-30" value="" style="edgeStyle=orthogonalEdgeStyle;rounded=0;orthogonalLoop=1;jettySize=auto;html=1;" parent="WIyWlLk6GJQsqaUBKTNV-1" source="jT1MtgrbQrkUiN0wVVsD-31" target="jT1MtgrbQrkUiN0wVVsD-33" edge="1">
          <mxGeometry relative="1" as="geometry" />
        </mxCell>
        <mxCell id="jT1MtgrbQrkUiN0wVVsD-31" value="&lt;div&gt;Read file block&lt;/div&gt;&lt;div&gt;(Pointer moved back)&lt;/div&gt;" style="rounded=0;whiteSpace=wrap;html=1;" parent="WIyWlLk6GJQsqaUBKTNV-1" vertex="1">
          <mxGeometry x="335" y="380" width="120" height="50" as="geometry" />
        </mxCell>
        <mxCell id="j0nrbRdaFHqnjfs8Q7LT-14" style="edgeStyle=orthogonalEdgeStyle;rounded=0;orthogonalLoop=1;jettySize=auto;html=1;exitX=0.5;exitY=1;exitDx=0;exitDy=0;entryX=0.5;entryY=0;entryDx=0;entryDy=0;" parent="WIyWlLk6GJQsqaUBKTNV-1" source="jT1MtgrbQrkUiN0wVVsD-33" target="jT1MtgrbQrkUiN0wVVsD-35" edge="1">
          <mxGeometry relative="1" as="geometry" />
        </mxCell>
        <mxCell id="jT1MtgrbQrkUiN0wVVsD-33" value="Calculate the current file block hash" style="rounded=0;whiteSpace=wrap;html=1;" parent="WIyWlLk6GJQsqaUBKTNV-1" vertex="1">
          <mxGeometry x="340" y="460" width="110" height="50" as="geometry" />
        </mxCell>
        <mxCell id="jT1MtgrbQrkUiN0wVVsD-34" value="" style="edgeStyle=orthogonalEdgeStyle;rounded=0;orthogonalLoop=1;jettySize=auto;html=1;" parent="WIyWlLk6GJQsqaUBKTNV-1" source="jT1MtgrbQrkUiN0wVVsD-35" target="jT1MtgrbQrkUiN0wVVsD-37" edge="1">
          <mxGeometry relative="1" as="geometry" />
        </mxCell>
        <mxCell id="j0nrbRdaFHqnjfs8Q7LT-15" style="edgeStyle=orthogonalEdgeStyle;rounded=0;orthogonalLoop=1;jettySize=auto;html=1;exitX=0;exitY=0.5;exitDx=0;exitDy=0;entryX=1;entryY=0.5;entryDx=0;entryDy=0;" parent="WIyWlLk6GJQsqaUBKTNV-1" source="jT1MtgrbQrkUiN0wVVsD-35" target="jT1MtgrbQrkUiN0wVVsD-39" edge="1">
          <mxGeometry relative="1" as="geometry" />
        </mxCell>
        <mxCell id="jT1MtgrbQrkUiN0wVVsD-35" value="Hash in the DB?" style="rhombus;whiteSpace=wrap;html=1;" parent="WIyWlLk6GJQsqaUBKTNV-1" vertex="1">
          <mxGeometry x="327.5" y="540" width="135" height="70" as="geometry" />
        </mxCell>
        <mxCell id="jT1MtgrbQrkUiN0wVVsD-36" style="edgeStyle=orthogonalEdgeStyle;rounded=0;orthogonalLoop=1;jettySize=auto;html=1;exitX=0.5;exitY=1;exitDx=0;exitDy=0;entryX=1;entryY=0.5;entryDx=0;entryDy=0;" parent="WIyWlLk6GJQsqaUBKTNV-1" source="jT1MtgrbQrkUiN0wVVsD-37" target="jT1MtgrbQrkUiN0wVVsD-41" edge="1">
          <mxGeometry relative="1" as="geometry" />
        </mxCell>
        <mxCell id="jT1MtgrbQrkUiN0wVVsD-37" value="Write current&amp;nbsp;block information to the database" style="rounded=0;whiteSpace=wrap;html=1;" parent="WIyWlLk6GJQsqaUBKTNV-1" vertex="1">
          <mxGeometry x="520" y="550" width="110" height="50" as="geometry" />
        </mxCell>
        <mxCell id="jT1MtgrbQrkUiN0wVVsD-38" value="" style="edgeStyle=orthogonalEdgeStyle;rounded=0;orthogonalLoop=1;jettySize=auto;html=1;" parent="WIyWlLk6GJQsqaUBKTNV-1" source="jT1MtgrbQrkUiN0wVVsD-39" target="jT1MtgrbQrkUiN0wVVsD-41" edge="1">
          <mxGeometry relative="1" as="geometry" />
        </mxCell>
        <mxCell id="jT1MtgrbQrkUiN0wVVsD-39" value="Update the counter for the current hash record in DB" style="rounded=0;whiteSpace=wrap;html=1;" parent="WIyWlLk6GJQsqaUBKTNV-1" vertex="1">
          <mxGeometry x="180" y="550" width="110" height="50" as="geometry" />
        </mxCell>
        <mxCell id="j0nrbRdaFHqnjfs8Q7LT-16" style="edgeStyle=orthogonalEdgeStyle;rounded=0;orthogonalLoop=1;jettySize=auto;html=1;exitX=0;exitY=0.5;exitDx=0;exitDy=0;entryX=0;entryY=0.5;entryDx=0;entryDy=0;" parent="WIyWlLk6GJQsqaUBKTNV-1" source="jT1MtgrbQrkUiN0wVVsD-41" target="jT1MtgrbQrkUiN0wVVsD-27" edge="1">
          <mxGeometry relative="1" as="geometry">
            <Array as="points">
              <mxPoint x="140" y="675" />
              <mxPoint x="140" y="295" />
            </Array>
          </mxGeometry>
        </mxCell>
        <mxCell id="jT1MtgrbQrkUiN0wVVsD-41" value="Hash value and Block written to file" style="rounded=0;whiteSpace=wrap;html=1;" parent="WIyWlLk6GJQsqaUBKTNV-1" vertex="1">
          <mxGeometry x="180" y="650" width="110" height="50" as="geometry" />
        </mxCell>
        <mxCell id="jT1MtgrbQrkUiN0wVVsD-42" value="END" style="ellipse;whiteSpace=wrap;html=1;" parent="WIyWlLk6GJQsqaUBKTNV-1" vertex="1">
          <mxGeometry x="540" y="360" width="90" height="40" as="geometry" />
        </mxCell>
        <mxCell id="jT1MtgrbQrkUiN0wVVsD-43" value="Yes" style="text;html=1;align=center;verticalAlign=middle;resizable=0;points=[];autosize=1;strokeColor=none;fillColor=none;" parent="WIyWlLk6GJQsqaUBKTNV-1" vertex="1">
          <mxGeometry x="-110" y="270" width="40" height="30" as="geometry" />
        </mxCell>
        <mxCell id="jT1MtgrbQrkUiN0wVVsD-45" value="No" style="text;html=1;align=center;verticalAlign=middle;resizable=0;points=[];autosize=1;strokeColor=none;fillColor=none;" parent="WIyWlLk6GJQsqaUBKTNV-1" vertex="1">
          <mxGeometry x="-191" y="330" width="40" height="30" as="geometry" />
        </mxCell>
        <mxCell id="jT1MtgrbQrkUiN0wVVsD-46" value="No" style="text;html=1;align=center;verticalAlign=middle;resizable=0;points=[];autosize=1;strokeColor=none;fillColor=none;" parent="WIyWlLk6GJQsqaUBKTNV-1" vertex="1">
          <mxGeometry x="390" y="336" width="40" height="30" as="geometry" />
        </mxCell>
        <mxCell id="jT1MtgrbQrkUiN0wVVsD-47" value="Yes" style="text;html=1;align=center;verticalAlign=middle;resizable=0;points=[];autosize=1;strokeColor=none;fillColor=none;" parent="WIyWlLk6GJQsqaUBKTNV-1" vertex="1">
          <mxGeometry x="470" y="270" width="40" height="30" as="geometry" />
        </mxCell>
        <mxCell id="jT1MtgrbQrkUiN0wVVsD-48" value="No" style="text;html=1;align=center;verticalAlign=middle;resizable=0;points=[];autosize=1;strokeColor=none;fillColor=none;" parent="WIyWlLk6GJQsqaUBKTNV-1" vertex="1">
          <mxGeometry x="-110" y="536" width="40" height="30" as="geometry" />
        </mxCell>
        <mxCell id="jT1MtgrbQrkUiN0wVVsD-49" value="No" style="text;html=1;align=center;verticalAlign=middle;resizable=0;points=[];autosize=1;strokeColor=none;fillColor=none;" parent="WIyWlLk6GJQsqaUBKTNV-1" vertex="1">
          <mxGeometry x="470" y="550" width="40" height="30" as="geometry" />
        </mxCell>
        <mxCell id="jT1MtgrbQrkUiN0wVVsD-50" value="Yes" style="text;html=1;align=center;verticalAlign=middle;resizable=0;points=[];autosize=1;strokeColor=none;fillColor=none;" parent="WIyWlLk6GJQsqaUBKTNV-1" vertex="1">
          <mxGeometry x="-285" y="538" width="40" height="30" as="geometry" />
        </mxCell>
        <mxCell id="jT1MtgrbQrkUiN0wVVsD-51" value="Yes" style="text;html=1;align=center;verticalAlign=middle;resizable=0;points=[];autosize=1;strokeColor=none;fillColor=none;" parent="WIyWlLk6GJQsqaUBKTNV-1" vertex="1">
          <mxGeometry x="295" y="550" width="40" height="30" as="geometry" />
        </mxCell>
        <mxCell id="j0nrbRdaFHqnjfs8Q7LT-6" style="edgeStyle=orthogonalEdgeStyle;rounded=0;orthogonalLoop=1;jettySize=auto;html=1;exitX=0.5;exitY=1;exitDx=0;exitDy=0;entryX=0.5;entryY=0;entryDx=0;entryDy=0;" parent="WIyWlLk6GJQsqaUBKTNV-1" source="j0nrbRdaFHqnjfs8Q7LT-0" target="jT1MtgrbQrkUiN0wVVsD-1" edge="1">
          <mxGeometry relative="1" as="geometry" />
        </mxCell>
        <mxCell id="j0nrbRdaFHqnjfs8Q7LT-0" value="获取恢复所用的&lt;div&gt;哈希算法和块大小&lt;/div&gt;" style="rounded=0;whiteSpace=wrap;html=1;" parent="WIyWlLk6GJQsqaUBKTNV-1" vertex="1">
          <mxGeometry x="-240" y="100" width="110" height="50" as="geometry" />
        </mxCell>
        <mxCell id="j0nrbRdaFHqnjfs8Q7LT-12" style="edgeStyle=orthogonalEdgeStyle;rounded=0;orthogonalLoop=1;jettySize=auto;html=1;exitX=0.5;exitY=1;exitDx=0;exitDy=0;entryX=0.5;entryY=0;entryDx=0;entryDy=0;" parent="WIyWlLk6GJQsqaUBKTNV-1" source="j0nrbRdaFHqnjfs8Q7LT-1" target="jT1MtgrbQrkUiN0wVVsD-24" edge="1">
          <mxGeometry relative="1" as="geometry" />
        </mxCell>
        <mxCell id="j0nrbRdaFHqnjfs8Q7LT-1" value="Get the hash algorithm and block size&amp;nbsp;&lt;div&gt;used for recovery&lt;/div&gt;" style="rounded=0;whiteSpace=wrap;html=1;" parent="WIyWlLk6GJQsqaUBKTNV-1" vertex="1">
          <mxGeometry x="335" y="105" width="130" height="50" as="geometry" />
        </mxCell>
      </root>
    </mxGraphModel>
  </diagram>
</mxfile>
